<?xml version="1.0" encoding="utf-8"?>
<!-- Generator: Adobe Illustrator 26.0.1, SVG Export Plug-In . SVG Version: 6.00 Build 0)  -->
<svg version="1.1" id="Layer_1" xmlns="http://www.w3.org/2000/svg" xmlns:xlink="http://www.w3.org/1999/xlink" x="0px" y="0px"
	 viewBox="0 0 175 395.88" style="enable-background:new 0 0 175 395.88;" xml:space="preserve">
<style type="text/css">
	.st0{fill:#A89880;}
	.st1{fill:#ECDBBA;}
	.st2{fill:#2D4263;}
</style>
<path class="st0" d="M77.56,149.9c-2.78-2.22-6.29-1.31-9.4-2.19c-10.18-2.89-19.52-7.06-27.09-14.83
	C31.47,123,21.69,113.33,10.65,105C5.47,101.15,2.58,95.7,0,90V77c0.28-0.15,0.74-0.24,0.8-0.45C4.83,62,8.24,47.33,7.51,32.06
	c-0.09-1.83-1.2-3.59,1.79-4.67c9.29-3.35,9.24-3.51,9.24-13.23c0-2.32,0.16-4.66-0.05-7C18.23,4.52,19.15,1.9,21,0h62
	c1,1.8,2.57,3.3,2.44,5.62S87,7,88.19,7.26C90,7.61,90.1,6.63,90,5.36C89.91,3,91.65,1.59,93,0h61c2.27,1.5,3.5,4.14,3.19,6.84
	c-0.14,3.49,0.39,7.05-0.12,10.47c-0.89,5.81,1.63,8.77,7,9.55c3.67,0.53,4.14,2.38,4,5.77c-0.65,15.22,2.43,29.92,6.9,44.37v15
	c-4.11,8.45-11.39,13.85-18.34,19.75c-8.35,7.11-16,15.08-23.92,22.67c-9.43,9-21,13.11-33.71,14.44c-1.72,0.18-3.7-0.63-5.07,1.16
	C88.52,146.54,83.05,146.67,77.56,149.9z M157.42,35c-0.95,5-4.15,5.54-7.95,5.52c-17.16-0.08-34.31,0-51.47,0
	c-6.72,0-8-1.26-8-7.81c0-6.17,0-12.33,0-18.5c0-1.67,0.28-3.6-2.19-3.59s-2.35,1.84-2.35,3.58c0,6.17,0,12.34,0,18.49
	c0,6.63-1.23,7.82-8,7.83c-16.5,0-32.99,0-49.48,0c-3.76,0-7.81,0.82-10-4.2C9.77,59.82,18,80.29,41,94.1
	c0.29-3.13,2.76-5.62,5.89-5.93c5.92-0.97,11.59-3.06,16.72-6.17c5.51-3.38,11.1-3.29,16.57-0.23c4.64,2.85,10.49,2.85,15.13,0
	c5.49-3,11.08-3.21,16.56,0.24c4.39,2.73,9.24,4.64,14.31,5.63c4,0.82,7.64,1.7,8.59,6.43C158.39,78.46,165.41,60.27,157.42,35z
	 M123.27,37.18c7.49,0,15-0.1,22.49,0c4.13,0.07,6.2-1.44,6.12-5.82c-0.15-7.49-0.12-15,0-22.49c0.06-4-1.72-5.77-5.7-5.76
	c-14.99,0.05-29.99,0.05-45,0c-4.29,0-6,2.1-6,6.13c0,7.33,0,14.67,0,22c0,4.13,1.85,6,6.12,6c7.3-0.19,14.64-0.07,21.97-0.07V37.18
	z M51.62,37.18c7.65,0,15.31,0,23,0c3.69,0,5.6-1.51,5.58-5.31c0-7.83,0-15.65,0-23.47c0-3.49-1.7-5.23-5.19-5.23
	c-15.33,0-30.65,0-45.94,0c-3.8,0-5.31,1.81-5.24,5.58c0.15,7.49,0.18,15,0,22.47c-0.11,4.26,1.56,6.08,5.86,6
	c7.31-0.17,14.6-0.06,21.93-0.06L51.62,37.18z M70.3,101.18c14.24,14.54,21.63,14.54,35.62,0.28c-12.07,0.69-23.27,0.99-35.62-0.3
	L70.3,101.18z"/>
<path class="st1" d="M114.89,158.77c-5.52,4.91-8.9,11.39-12.55,18.15c-1.08-4.14-0.69-7.88-2.22-11.26c0.1,1-0.54,1.31-1.38,1.43
	c0.54,6.07,1.09,12.15,1.61,18.23c0.09,1,0.08,2.1,1.42,2.13c1,0,1.19-0.84,1.32-1.72c1.44-10,6.8-18,12.87-25.75
	c2.16-2.42,5.14-4.2,6.89-8.84C119.86,153.31,117.19,155.88,114.89,158.77z"/>
<path class="st1" d="M50.51,153.81l1,1l1,1l0,0l1,1l0,0l1,1c0.11,0.28,0.34,0.51,0.62,0.62c3.68,4.3,6.98,8.91,9.87,13.78
	c2.78,4.83,3.29,10.61,6.14,15.43c1.42-7.26,1.08-14.44,2.62-21.43c0-1.54,0.52-3.16-0.88-4.41c-2.16,4.19-1.17,9.14-3.08,14.25
	c-3.8-7.33-7.8-13.55-13.3-18.62l-0.93-0.93l-1-1l-1-1l-1-1l-1.08-1l-1.18-0.85l-3.83-3.4l0,0h-1.15l0.41,0.93l3.78,3.56l0,0
	L50.51,153.81z"/>
<path class="st2" d="M77.69,179.23c-6.3,12-7,25.07-7.62,38.25c-1.93,41.21-2.58,82.44-3,123.68c-0.06,6.15-0.52,12.3-1.38,18.39
	c-0.52,3.66,0.56,6.27,2.62,9.09c5.65,7.75,13,14.93,17.76,23.36c4.71-8.43,12.1-15.61,17.75-23.36c2.07-2.82,3.14-5.43,2.63-9.09
	c-0.86-6.09-1.33-12.24-1.39-18.39c-0.41-41.24-1.07-82.47-3-123.68c-0.62-13.18-1.32-26.26-7.62-38.25
	c-1.69-3.22-3.91-6.13,1.44-8.22c1.27-0.5,1.92-2.58,2.86-3.92c0.84-0.12,1.48-0.42,1.38-1.43c-0.63-0.93-1.02-2-1.12-3.12
	c-0.54-4.61-1.9-8.93-5-12.52c-5.44-3.48-10.91-3.35-16.4-0.12c-3.09,3.36-3.89,7.62-4.65,11.9c1.4,1.25,0.93,2.87,0.88,4.41
	c0.91,2.36,2,4.78,4.29,5.9c2.67,1.27,2.47,2.57-0.41,7.12"/>
</svg>
